<svg xmlns="http://www.w3.org/2000/svg" viewBox="0 0 100 100" preserveAspectRatio="xMidYMid" style="shape-rendering: auto; display: block; background: transparent;" width="200" height="200" xmlns:xlink="http://www.w3.org/1999/xlink"><g><g transform="rotate(0 50 50)">
  <rect fill="#fe718d" height="6" width="5" ry="3" rx="2.5" y="40" x="47.5">
    <animate repeatCount="indefinite" begin="-0.8978675645342312s" dur="1.0101010101010102s" keyTimes="0;1" values="1;0" attributeName="opacity"></animate>
  </rect>
</g><g transform="rotate(40 50 50)">
  <rect fill="#f47e60" height="6" width="5" ry="3" rx="2.5" y="40" x="47.5">
    <animate repeatCount="indefinite" begin="-0.7856341189674523s" dur="1.0101010101010102s" keyTimes="0;1" values="1;0" attributeName="opacity"></animate>
  </rect>
</g><g transform="rotate(80 50 50)">
  <rect fill="#f8b26a" height="6" width="5" ry="3" rx="2.5" y="40" x="47.5">
    <animate repeatCount="indefinite" begin="-0.6734006734006734s" dur="1.0101010101010102s" keyTimes="0;1" values="1;0" attributeName="opacity"></animate>
  </rect>
</g><g transform="rotate(120 50 50)">
  <rect fill="#abbd81" height="6" width="5" ry="3" rx="2.5" y="40" x="47.5">
    <animate repeatCount="indefinite" begin="-0.5611672278338945s" dur="1.0101010101010102s" keyTimes="0;1" values="1;0" attributeName="opacity"></animate>
  </rect>
</g><g transform="rotate(160 50 50)">
  <rect fill="#849b87" height="6" width="5" ry="3" rx="2.5" y="40" x="47.5">
    <animate repeatCount="indefinite" begin="-0.4489337822671156s" dur="1.0101010101010102s" keyTimes="0;1" values="1;0" attributeName="opacity"></animate>
  </rect>
</g><g transform="rotate(200 50 50)">
  <rect fill="#6492ac" height="6" width="5" ry="3" rx="2.5" y="40" x="47.5">
    <animate repeatCount="indefinite" begin="-0.3367003367003367s" dur="1.0101010101010102s" keyTimes="0;1" values="1;0" attributeName="opacity"></animate>
  </rect>
</g><g transform="rotate(240 50 50)">
  <rect fill="#637cb5" height="6" width="5" ry="3" rx="2.5" y="40" x="47.5">
    <animate repeatCount="indefinite" begin="-0.2244668911335578s" dur="1.0101010101010102s" keyTimes="0;1" values="1;0" attributeName="opacity"></animate>
  </rect>
</g><g transform="rotate(280 50 50)">
  <rect fill="#6a63b6" height="6" width="5" ry="3" rx="2.5" y="40" x="47.5">
    <animate repeatCount="indefinite" begin="-0.1122334455667789s" dur="1.0101010101010102s" keyTimes="0;1" values="1;0" attributeName="opacity"></animate>
  </rect>
</g><g transform="rotate(320 50 50)">
  <rect fill="#fe718d" height="6" width="5" ry="3" rx="2.5" y="40" x="47.5">
    <animate repeatCount="indefinite" begin="0s" dur="1.0101010101010102s" keyTimes="0;1" values="1;0" attributeName="opacity"></animate>
  </rect>
</g><g></g></g><!-- [ldio] generated by https://loading.io --></svg>